<svg xmlns="http://www.w3.org/2000/svg" viewBox="0 0 48 48">
	<circle cx="24" cy="24" r="24" fill="#d4eef9"/>
	<path d="M5.5 44.1h29.1c.9 0 1.5-.7 1.5-1.5v-29l-6.8-9.5H5.5c-.9 0-1.5.7-1.5 1.5v37c-.1.9.6 1.5 1.5 1.5z" fill="#fff" stroke="#53bce6"/>
	<path d="M5.5 43.9h26.7c.9 0 1.5-.7 1.5-1.5V11.2l-4.6-4.5H5.5c-.8 0-1.5.7-1.5 1.5v34.2c0 .9.7 1.5 1.5 1.5z" fill="#d4eef9"/>
	<path d="M29 14.8H9.4v2H29v-2zM29 19H9.4v2H29v-2zM29 23.2H9.4v2H29v-2zM29 27.4H9.4v2H29v-2zM29 31.6H9.4v2H29v-2zM20.4 35.8h-11v2h11v-2z" fill="#98d7f0"/>
	<path fill="#fff" d="M36 13.8h-3.3c-1.8 0-3.3.4-3.3-2.1V4.4"/>
	<path d="M36 13.8h-3.3c-1.8 0-3.3.4-3.3-2.1V4.4" fill="none" stroke="#53bce6"/>
	<path d="M5.5 44.1h29.1c.9 0 1.5-.7 1.5-1.5V13.7l-6.7-9.6H5.5c-.9 0-1.5.7-1.5 1.5v37c-.1.9.6 1.5 1.5 1.5z" fill="none" stroke="#53bce6"/>
	<path d="M21.1 34.7l-2.4 1 1-2.3c.1-.4.5-1.1.9-1.4l21.6-21.1c.3-.3.8-.3 1.1 0l.9.9c.3.3.3.8 0 1.1l-21.7 21c-.3.3-.9.7-1.4.8z" fill="#fff" stroke="#53bce6"/>
	<path fill="#d5eef7" d="M21 33.5l-2 1.2 1.2-1.9c.1-.3.6-1 .9-1.2l20.3-19.9c.3-.3.7-.4.8-.2l.5.5c.1.2.1.5-.2.8L22.2 32.6c-.3.3-.8.7-1.2.9z"/>
	<path d="M22.1 32.7L21 31.6M42 14.7L40.2 13M21.1 34.7l-2.4 1 1-2.3c.1-.4.5-1.1.9-1.4l21.6-21.1c.3-.3.8-.3 1.1 0l.9.9c.3.3.3.8 0 1.1l-21.7 21c-.3.3-.9.7-1.4.8z" fill="none" stroke="#53bce6"/>
</svg>