<svg xmlns="http://www.w3.org/2000/svg" viewBox="0 0 48 48">
	<circle cx="24" cy="24" r="24" fill="#d4eef9"/>
	<path d="M42.7 40.5c0 .9-.8 1.7-1.7 1.7H7.4c-.9 0-1.7-.7-1.7-1.7V7.8c0-.9.8-1.7 1.7-1.7H41c.9 0 1.7.7 1.7 1.7v32.7z" fill="#fff"/>
	<path d="M40.9 41c0 .6-.5 1.1-1.1 1.1h-33c-.6 0-1.1-.5-1.1-1.1V7.9h34.1c.6 0 1.1.5 1.1 1.1v32z" fill="#d4eef9"/>
	<path d="M23.1 42.1V27.7h-4.8v-5h4.8v-5.4c0-3.3 3-5.4 5.4-5.4h5.4v4.5h-2.5c-1.2 0-2.9 1-2.9 2.2v4.1h4.9v5h-4.8v14.5" fill="#fff"/>
	<path fill="none" stroke="#53bce6" d="M23.1 42.1V27.7h-4.8v-5h4.8v-5.4c0-3.3 3-5.4 5.4-5.4h5.4v4.5h-2.5c-1.2 0-2.9 1-2.9 2.2v4.1h4.9v5h-4.8v14.5"/>
	<path fill="none" stroke="#53bce6" d="M42.7 40.5c0 .9-.8 1.7-1.7 1.7H7.4c-.9 0-1.7-.7-1.7-1.7V7.8c0-.9.8-1.7 1.7-1.7H41c.9 0 1.7.7 1.7 1.7v32.7z"/>
</svg>