<svg xmlns="http://www.w3.org/2000/svg" viewBox="0 0 48 48">
    <circle cx="24" cy="24" r="24" fill="#d4eef9"/>
    <g id="forum">
        <path d="M6.7 21.8c.1-.4.1-6.3.1-6.3s.8-5 4.8-5.4c3.9-.4 4.7-.1 4.7-.1s3.7 0 5 5.1c0 0 .3 7 0 8.2-.3 1.2-1 3.4-4.4 4.5-3.3 1.2-3.2.8-4.5.3-1.4-.4-3.4-1.2-4.5-2.7-1.1-1.5-1.1-3.8-1.1-3.8" fill="#fff"/>
        <path d="M6.7 21.8c.1-.4.1-6.3.1-6.3s.8-5 4.8-5.4c3.9-.4 4.7-.1 4.7-.1s3.7 0 5 5.1c0 0 .3 7 0 8.2-.3 1.2-1 3.4-4.4 4.5-3.3 1.2-3.2.8-4.5.3-1.4-.4-3.4-1.2-4.5-2.7-1.1-1.5-1.1-3.8-1.1-3.8" fill="none" stroke="#53bce6"/>
        <path d="M19 26.8s4.3.3 4.8 5.3v6.7H4.2v-7s.3-3.7 4.7-5.1" fill="#fff"/>
        <path d="M19 26.8s4.3.3 4.8 5.3v6.7H4.2v-7s.3-3.7 4.7-5.1" fill="none" stroke="#53bce6"/>
        <path d="M10.5 27.6l-.9 4.7 4.5-2.3" fill="#fff"/>
        <path d="M10.5 27.6l-.9 4.7 4.5-2.3" fill="none" stroke="#53bce6"/>
        <path d="M17.5 27.7l.8 4.5-4.1-2.2-.1-1.4" fill="#fff"/>
        <path d="M17.5 27.7l.8 4.5-4.1-2.2-.1-1.4" fill="none" stroke="#53bce6"/>
        <path d="M16.5 31.3L14.1 35l-2.6-3.5" fill="#fff"/>
        <path d="M16.5 31.3L14.1 35l-2.6-3.5M14.1 34.9v3.8" fill="none" stroke="#53bce6"/>
        <path d="M8.9 26.7c-4.1 1.3-4.6 5.4-4.6 5.4v6.7h18.5v-6.4c-.5-4.6-4.5-5-4.5-5s-2.2 1.4-4.4 1.2c-2.4-.2-5-1.9-5-1.9z" fill="#d4eef9"/>
        <path d="M6.7 21.3s0 2.2.8 3.7c.9 1.5 2.9 2.1 4.2 2.5 1.3.4 1.1.8 4.2-.3 3.2-1.1 3.8-3.1 4.1-4.2.3-1.1 0-7.7 0-7.7-1.2-4.8-4.6-4.8-4.6-4.8s-.7-.3-4.4.1c-3.7.3-4.2 5.1-4.2 5.1s0 5.9-.1 6.3M16.5 31.3L14.1 35l-2.6-3.5" fill="#d4eef9"/>
        <path d="M19 26.8s4.3.3 4.8 5.3v6.7H4.2v-7s.3-3.7 4.7-5.1" fill="none" stroke="#53bce6"/>
        <path d="M6.7 21.7s0 2.3 1.1 3.8 3.1 2.2 4.5 2.7c1.4.4 1.2.8 4.5-.3 3.4-1.2 4.1-3.4 4.4-4.6.3-1.2 0-8.2 0-8.2-1.3-5.1-5-5.1-5-5.1s-.8-.3-4.7.1c-3.9.4-4.8 5.4-4.8 5.4s0 5.9-.1 6.3" fill="none" stroke="#53bce6"/>
        <path d="M6.7 21.8c-.1-1.8.1-6.3.1-6.3s.8-5 4.8-5.4c3.9-.4 4.7-.1 4.7-.1s3.7 0 5 5.1c0 0 .3 7 0 8.2s-1 3.4-4.4 4.5c-3.3 1.2-3.2.8-4.5.3-1.4-.4-3.4-1.2-4.5-2.7-1.2-1.5-1.2-3.6-1.2-3.6z" fill="none" stroke="#53bce6"/>
        <path d="M11 27.2c.1-.4.1-6.4.1-6.4s.8-5 4.8-5.4c3.9-.3 4.7-.1 4.7-.1s3.7 0 4.9 5.1c0 0 .3 7 0 8.2-.3 1.2-1 3.4-4.4 4.5-3.3 1.2-3.2.8-4.5.3-1.4-.4-3.4-1.2-4.5-2.7C11 29.3 11 27 11 27" fill="#fff"/>
        <path d="M11 27.2c.1-.4.1-6.4.1-6.4s.8-5 4.8-5.4c3.9-.3 4.7-.1 4.7-.1s3.7 0 4.9 5.1c0 0 .3 7 0 8.2-.3 1.2-1 3.4-4.4 4.5-3.3 1.2-3.2.8-4.5.3-1.4-.4-3.4-1.2-4.5-2.7C11 29.3 11 27 11 27" fill="none" stroke="#53bce6"/>
        <path d="M23.3 32.1s4.3.3 4.8 5.3v6.7H8.5v-7s.3-3.7 4.7-5.1" fill="#fff"/>
        <path d="M23.3 32.1s4.3.3 4.8 5.3v6.7H8.5v-7s.3-3.7 4.7-5.1" fill="none" stroke="#53bce6"/>
        <path d="M14.8 32.9l-.9 4.7 4.5-2.3" fill="#fff"/>
        <path d="M14.8 32.9l-.9 4.7 4.5-2.3" fill="none" stroke="#53bce6"/>
        <path d="M21.8 33l.8 4.5-4.2-2.1V34" fill="#fff"/>
        <path d="M21.8 33l.8 4.5-4.2-2.1V34" fill="none" stroke="#53bce6"/>
        <path d="M20.8 36.6l-2.4 2.6-2.6-2.5" fill="#fff"/>
        <path d="M20.8 36.6l-2.4 2.6-2.6-2.5M18.4 39.2v4.9" fill="none" stroke="#53bce6"/>
        <path d="M13.2 32.1c-4.1 1.3-4.7 5.4-4.7 5.4v6.7H27v-6.4c-.5-4.6-4.5-5-4.5-5s-2.2 1.4-4.4 1.2c-2.3-.3-4.9-1.9-4.9-1.9z" fill="#d4eef9"/>
        <path d="M10.9 26.7s0 2.2.8 3.7c.9 1.5 2.9 2.1 4.2 2.5 1.3.4 1.1.8 4.2-.3 3.2-1.1 3.8-3.1 4.1-4.2.3-1.1 0-7.7 0-7.7-1.2-4.8-4.7-4.8-4.7-4.8s-.7-.3-4.4.1c-3.5.2-4.1 5-4.1 5s0 5.9-.1 6.3M20.8 36.6l-2.4 2.6-2.6-2.5" fill="#d4eef9"/>
        <path d="M23.3 32.1s4.3.3 4.8 5.3v6.7H8.5v-7s.3-3.7 4.7-5.1" fill="none" stroke="#53bce6"/>
        <path d="M21.8 33l.8 4.5-4.2-2.1V34" fill="#fff"/>
        <path d="M21.8 33l.8 4.5-4.2-2.1V34" fill="none" stroke="#53bce6"/>
        <path d="M21 33.1l.5 3.7-3.1-1.5V34" fill="#d4eef9"/>
        <path d="M14.8 32.9l-.9 4.7 4.5-2.3-.1-1.3s-.5.1-.8-.1c-.4-.2-2.7-1-2.7-1z" fill="#fff" stroke="#53bce6"/>
        <path d="M14.8 33.2l-.8 4.2 3.6-1.8-.2-1.4-2.6-1z" fill="#d4eef9"/>
        <path d="M21.8 33l.8 4.5-4.2-2.1V34M14.8 32.9l-.9 4.7 4.5-2.3-.1-1.3s-.5.1-.8-.1c-.4-.2-2.7-1-2.7-1z" fill="none" stroke="#53bce6"/>
        <path d="M11 27s0 2.3 1.1 3.8 3.1 2.2 4.5 2.7c1.4.4 1.2.8 4.5-.3 3.4-1.2 4-3.4 4.4-4.5.3-1.2 0-8.2 0-8.2-1.3-5.1-4.9-5.1-4.9-5.1s-.8-.3-4.7.1c-4 .4-4.8 5.4-4.8 5.4s0 5.9-.1 6.3" fill="none" stroke="#53bce6"/>
        <path d="M11.2 24.6s3.4.2 5.5-.3c1.6-.4 3.7-.9 5.2-4.3l3.7 4.7" fill="none" stroke="#53bce6"/>
        <path d="M11 27.2c-.1-1.8.1-6.4.1-6.4s.8-5 4.8-5.4c3.9-.3 4.7-.1 4.7-.1s3.7 0 4.9 5.1c0 0 .3 7 0 8.2-.3 1.2-1 3.4-4.4 4.5-3.3 1.2-3.2.8-4.5.3-1.4-.4-3.4-1.2-4.5-2.7-1.1-1.4-1.1-3.5-1.1-3.5zM20.7 36.8l-2.3 2.5-2.5-2.4M18.4 39.2v4.9" fill="none" stroke="#53bce6"/>
        <path d="M27.3 19.3h3.8l.1 3.6s0 .4.3.4c.3.1.8-.3.8-.3l3.2-3.7h8c.3 0 .7-.3.7-.7V4.8c0-.3-.3-.7-.7-.7H27.3c-.3 0-.7.3-.7.7v13.9c.1.3.4.6.7.6z" fill="#fff" stroke="#53bce6"/>
        <path d="M27.3 19.3h3.8l.1 3.6s0 .4.3.4c.3.1.8-.3.8-.3l3.2-3.7h6.1c.3 0 .7-.3.7-.7v-12c0-.3-.3-.7-.7-.7H27.3c-.3 0-.7.3-.7.7v11.9c.1.5.4.8.7.8z" fill="#d4eef9"/>
        <path d="M40.6 7.5H29.9v1.3h10.7V7.5zM35.9 10H30v1.3h5.9V10zM40.6 10h-3.8v1.3h3.8V10zM37 12.7h-7.1V14H37v-1.3zM40.6 15.1H29.9v1.3h10.7v-1.3zM40.6 12.7H38V14h2.6v-1.3z" fill="#98d7f0"/>
        <path d="M27.3 19.3h3.8l.1 3.6s0 .4.3.4c.3.1.8-.3.8-.3l3.2-3.7h8c.3 0 .7-.3.7-.7V4.8c0-.3-.3-.7-.7-.7H27.3c-.3 0-.7.3-.7.7v13.9c.1.3.4.6.7.6z" fill="none" stroke="#53bce6"/>
    </g>
</svg>