<svg xmlns="http://www.w3.org/2000/svg" viewBox="0 0 48 48">
    <circle cx="24" cy="24" r="24" fill="#d4eef9"/>
    <path fill="#fff" d="M39.8 6v38.1H10.4c-1 0-1.9-.8-1.9-1.9V6c0-1 .8-1.9 1.9-1.9H38c1 0 1.8.9 1.8 1.9z"/>
    <path d="M37.9 7.3v30.4H9.8c-.7 0-1.3-.5-1.3-1.2V6h28.2c.7 0 1.2.6 1.2 1.3zM37.9 38v6.1H10.2c-.9 0-1.7-.8-1.7-1.7V40c0-1.1.9-1.9 1.9-1.9h27.5z" fill="#d4eef9"/>
    <path fill="#96d7ef" d="M10.4 4.1C9.3 4.1 8.5 5 8.5 6v33.9c0-1 .8-1.9 1.9-1.9H14V4.1h-3.6z"/>
    <path d="M39.8 6v38.1H10.4c-1 0-1.9-.8-1.9-1.9V6c0-1 .8-1.9 1.9-1.9H38c1 0 1.8.9 1.8 1.9z" fill="none" stroke="#53bce6"/>
    <path d="M8.5 41.9v-2c0-1 .8-1.9 1.9-1.9h29.5v3.9" fill="none" stroke="#53bce6"/>
    <path d="M34.8 16.9h-17v1.7h17v-1.7zM34.8 20.5h-17v1.7h17v-1.7zM27.3 24.1h-9.6v1.7h9.6v-1.7z" fill="#53bce6"/>
</svg>