<svg xmlns="http://www.w3.org/2000/svg" fill="none" width="98" height="41" viewBox="0 0 98 41">
    <path fill="#fff" d="M2.97 40.64H0V9.54c2.5-.79 4.92-1.18 7.35-1.18a11.64 11.64 0 018.44 3.05 9.62 9.62 0 012.34 3.44c.55 1.33.78 2.81.78 4.37 0 1.96-.31 3.6-1.01 4.93a8.61 8.61 0 01-2.58 3.36 10.4 10.4 0 01-3.68 1.95 15.32 15.32 0 01-6.48.47c-.78-.08-1.49-.23-2.27-.47v11.18h.08zm12.58-21.42c0-2.5-.7-4.45-2.1-6.01-1.41-1.57-3.37-2.27-5.87-2.27-.78 0-1.56.08-2.34.16-.79.08-1.57.31-2.27.54v15.17c.7.23 1.4.39 2.11.54.7.16 1.4.24 2.11.24 2.58 0 4.53-.7 6.1-2.2 1.48-1.4 2.26-3.43 2.26-6.17zM24.93 30.01V0h2.97v30.01h-2.97zM52.44 26.88a11.75 11.75 0 01-3.44 2.5c-1.33.55-2.9.86-4.77.86-1.72 0-3.2-.3-4.53-.86a9.72 9.72 0 01-3.2-2.34 10.64 10.64 0 01-1.96-3.44c-.39-1.25-.62-2.66-.62-4.06 0-1.88.23-3.52.78-4.93.55-1.4 1.25-2.5 2.1-3.43a8.04 8.04 0 013.06-2.04 10 10 0 013.75-.7c3.12 0 5.55.94 7.1 2.9 1.57 1.95 2.35 4.76 2.35 8.43h-16.1c.08 2.42.79 4.38 2.11 5.79 1.33 1.4 3.13 2.1 5.4 2.1 1.25 0 2.42-.23 3.44-.62a7.6 7.6 0 002.8-2.03l1.73 1.87zm-2.42-9.77a8.8 8.8 0 00-.4-2.5 4.52 4.52 0 00-1.17-1.95 5.1 5.1 0 00-1.95-1.33 7.57 7.57 0 00-2.81-.47c-1.1 0-2.04.16-2.82.47-.78.31-1.4.78-1.87 1.25a9.34 9.34 0 00-2.04 4.53h13.06zM72.68 13.6a8.55 8.55 0 00-2.42-2.11 6.39 6.39 0 00-3.13-.63c-1.56 0-2.58.24-3.2.78a2.63 2.63 0 00-.94 2.04 3 3 0 00.39 1.48c.31.4.62.78 1.1 1.02a8 8 0 001.63.78c.63.23 1.26.39 1.88.62.78.24 1.64.55 2.42.86.78.32 1.57.7 2.2 1.18a5.15 5.15 0 012.26 4.45 5.47 5.47 0 01-2.35 4.53c-.7.55-1.56.94-2.5 1.18-.94.23-2.03.39-3.12.39-1.72 0-3.2-.32-4.54-.86a10.98 10.98 0 01-3.75-2.74l2.35-2.03a7.27 7.27 0 006.1 2.97c1.63 0 2.8-.31 3.59-.94.78-.62 1.17-1.33 1.17-2.19 0-.62-.16-1.17-.4-1.64-.3-.47-.7-.86-1.16-1.17a8.76 8.76 0 00-1.72-.78c-.63-.24-1.33-.4-2.03-.63-.79-.23-1.65-.47-2.43-.78a8.97 8.97 0 01-2.1-1.1 5.5 5.5 0 01-1.57-1.71c-.4-.7-.63-1.57-.63-2.58 0-1.88.7-3.36 2.04-4.38a8.75 8.75 0 015.31-1.56 9.8 9.8 0 014.14.78c1.25.55 2.35 1.4 3.52 2.74l-2.11 2.03zM80.65 30.01V.08h2.97V30h-2.97zm2.97-11.1L93.94 8.6H98L87.45 18.9 97.92 30.1h-4.14L83.62 18.9z"/>
    <path fill="#53BCE6" d="M35.32 40.64H17.27v-2.82h18.05v2.82z"/>
</svg>