<svg xmlns="http://www.w3.org/2000/svg" viewBox="0 0 48 48">
	<circle cx="24" cy="24" r="24" fill="#d4eef9"/>
	<path d="M14.9 42.9h23c.7 0 1.2-.5 1.2-1.2V14.5l-5.4-7.6H14.9c-.7 0-1.2.5-1.2 1.2v33.6c0 .7.5 1.2 1.2 1.2z" fill="#fff" stroke="#53bce6"/>
	<path d="M14.9 42.8H36c.7 0 1.2-.5 1.2-1.2v-29L33.6 9H14.9c-.7 0-1.2.5-1.2 1.2v31.3c0 .7.6 1.3 1.2 1.3z" fill="#d5eef7"/>
	<path d="M17 10.8h-.5v29.5h.5V10.8zM20.1 10.8h-.5v29.5h.5V10.8zM23.2 10.8h-.5v29.5h.5V10.8zM26.3 10.8h-.5v29.5h.5V10.8zM29.4 10.8h-.5v29.5h.5V10.8zM32.5 10.8H32v29.5h.5V10.8zM35.6 12.4h-.5v27.9h.5V12.4z" fill="#96d7ef"/>
	<path d="M36.4 16.1H15.3v.5h21.1v-.5zM34.4 12.7H15.3v.5h19.1v-.5zM36.4 19.2H15.3v.5h21.1v-.5zM36.4 22.3H15.3v.5h21.1v-.5zM36.4 25.4H15.3v.5h21.1v-.5zM36.4 28.5H15.3v.5h21.1v-.5zM36.4 31.6H15.3v.5h21.1v-.5zM36.5 34.7H15.3v.5h21.2v-.5zM36.5 37.7H15.3v.5h21.2v-.5z" fill="#96d7ef"/>
	<path fill="#fff" d="M39 14.6h-2.6c-1.4 0-2.6.3-2.6-1.7V7.1"/>
	<path d="M39 14.6h-2.6c-1.4 0-2.6.3-2.6-1.7V7.1" fill="none" stroke="#53bce6"/>
	<path d="M14.9 42.9h23c.7 0 1.2-.5 1.2-1.2V14.6L33.8 7H14.9c-.7 0-1.2.5-1.2 1.2v33.6c0 .6.5 1.1 1.2 1.1z" fill="none" stroke="#53bce6"/>
	<path d="M19.6 5.1l3.1 2.2c.5.3.6 1 .3 1.5L5.8 33.5c-.3.5-1 .6-1.5.3l-3.1-2.2c-.5-.3-.6-1-.3-1.5L18.2 5.4c.3-.5.9-.6 1.4-.3z" fill="#fff" stroke="#53bce6"/>
	<path d="M18.6 6.6l2.1 1.5c.5.3.6 1 .3 1.5L4.8 32.8c-.3.5-1 .6-1.5.3l-2.1-1.5c-.5-.3-.6-1-.3-1.5L17.1 6.8c.3-.4 1.1-.5 1.5-.2z" fill="#d5eef7"/>
	<path d="M4.3 29.6l2.6 1.8M7.2 28.1l1.3.9M8.7 25.7l1.5 1M11.9 21.1l1.4.9M13.5 18.8l1.5 1M16.8 14.2l1.4.9M18.3 11.8l1.5 1M9.1 22.5l2.7 1.9M13.9 15.3l2.8 2M18.7 8.3l2.8 1.9M19.6 5.1l3.1 2.2c.5.3.6 1 .3 1.5L5.8 33.5c-.3.5-1 .6-1.5.3l-3.1-2.2c-.5-.3-.6-1-.3-1.5L18.2 5.4c.3-.5.9-.6 1.4-.3z" fill="none" stroke="#53bce6"/>
	<path d="M33.2 21.3l-.3-2 1.5 1.2c.2.2.8.6.9.9l12.1 20.5c.1.3.1.7-.2.8l-.9.5c-.3.1-.7.1-.8-.2L33.4 22.5c0-.4-.2-.9-.2-1.2z" fill="#fff" stroke="#53bce6"/>
	<path d="M34.2 21.4l-.5-1.8L35 21c.2.2.6.6.8.9l11.4 19.3c.1.3.2.6 0 .7l-.5.3c-.2.1-.4-.1-.5-.3L34.7 22.5c-.2-.3-.5-.8-.5-1.1z" fill="#d5eef7"/>
	<path d="M33.5 22.4l1.1-.6M44.5 40.9l1.7-1M33.2 21.3l-.3-2 1.5 1.2c.2.2.8.6.9.9l12.1 20.5c.1.3.1.7-.2.8l-.9.5c-.3.1-.7.1-.8-.2L33.4 22.5c0-.4-.2-.9-.2-1.2z" fill="none" stroke="#53bce6"/>
</svg>