<svg xmlns="http://www.w3.org/2000/svg" viewBox="0 0 48 48">
	<circle cx="24" cy="24" r="24" fill="#d4eef9"/>
	<path d="M41.8 42.6c0 1-.8 1.9-1.9 1.9h-30c-1 0-1.9-.8-1.9-1.9V20.4h33.8v22.2z" fill="#fff"/>
	<path d="M39 43c0 .8-.7 1.5-1.6 1.5H9.8c-1 0-1.7-.7-1.7-1.7V27.9h31L39 43z" fill="#d4eef9"/>
	<path d="M39.1 20.4h-31v8.1h31v-8.1z" fill="#96d7ef"/>
	<path d="M16.7 20.7h-2.5l-4 7.9h2.5l4-7.9zM23.7 20.7h-2.5l-4 7.9h2.5l4-7.9zM30.7 20.7h-2.5l-4 7.9h2.5l4-7.9zM37.7 20.7h-2.5l-4 7.9h2.5l4-7.9z" fill="#fff"/>
	<path d="M42 42.7c0 1-.8 1.9-1.9 1.9H9.9c-1 0-1.9-.8-1.9-1.9V20.3h34v22.4z" fill="none" stroke="#53bce6"/>
	<path d="M38.9 5.2c-.3-1-1.3-1.6-2.3-1.3l-29 7.9c-1 .3-1.6 1.3-1.3 2.3l1.6 6 32.7-8.9-1.7-6z" fill="#fff"/>
	<path d="M35.7 4.1L7.6 11.8c-.9.2-1.4 1.2-1.2 2.1l1.7 6.2 29.8-8.2-2.2-7.8z" fill="#96d7ef"/>
	<path d="M14.6 10l-2.4.6-1.8 8.7 2.4-.7 1.8-8.6zM21.3 8.1l-2.3.7-1.8 8.6 2.3-.6 1.8-8.7zM28.1 6.3l-2.4.6-1.8 8.7 2.4-.7 1.8-8.6zM34.8 4.5l-2.3.6-1.8 8.6 2.3-.6 1.8-8.6z" fill="#fff"/>
	<path d="M39.2 5.1c-.3-1-1.3-1.6-2.3-1.3l-29.2 8c-1 .3-1.6 1.3-1.3 2.3L8 20.2l32.8-9-1.6-6.1z" fill="none" stroke="#53bce6"/>
	<path fill="#53bce6" d="M25 41.3c2.8 0 5-2.2 5-5s-2.2-5-5-5-5 2.2-5 5c0 2.7 2.2 5 5 5z"/>
	<path d="M23.6 39.2l4.4-2.9-4.4-3v5.9z" fill="#fff"/>
</svg>